<svg version="1.1" xmlns="http://www.w3.org/2000/svg" xmlns:xlink="http://www.w3.org/1999/xlink" width="400" height="300" style="width: 400px; height: 300px;"><defs><clipPath id="mEFyHaoMoPIX"><path fill="none" stroke="none" d=" M 55 5 L 395 5 L 395 246 L 55 246 L 55 5 Z"/></clipPath><clipPath id="TawgJaJWOAat"><path fill="none" stroke="none" d=" M 55 5 L 395 5 L 395 246 L 55 246 L 55 5 Z"/></clipPath></defs><g><g transform="scale(1,1) translate(0.5,0.5)"><rect fill="#FFFFFF" stroke="none" x="0" y="0" width="400" height="300"/><g><rect fill="none" stroke="#e5e5e5" x="55" y="5" width="340" height="241" stroke-linejoin="bevel" stroke-miterlimit="10"/></g><g clip-path="url(#mEFyHaoMoPIX)"><g><g><path fill="none" stroke="#e5e5e5" paint-order="fill stroke markers" d=" M 112 246 L 112 5" stroke-linejoin="bevel" stroke-miterlimit="10"/><path fill="none" stroke="#e5e5e5" paint-order="fill stroke markers" d=" M 168 246 L 168 5" stroke-linejoin="bevel" stroke-miterlimit="10"/><path fill="none" stroke="#e5e5e5" paint-order="fill stroke markers" d=" M 225 246 L 225 5" stroke-linejoin="bevel" stroke-miterlimit="10"/><path fill="none" stroke="#e5e5e5" paint-order="fill stroke markers" d=" M 282 246 L 282 5" stroke-linejoin="bevel" stroke-miterlimit="10"/><path fill="none" stroke="#e5e5e5" paint-order="fill stroke markers" d=" M 338 246 L 338 5" stroke-linejoin="bevel" stroke-miterlimit="10"/></g><g><path fill="none" stroke="#e5e5e5" paint-order="fill stroke markers" d=" M 55 198 L 395 198" stroke-linejoin="bevel" stroke-miterlimit="10"/><path fill="none" stroke="#e5e5e5" paint-order="fill stroke markers" d=" M 55 150 L 395 150" stroke-linejoin="bevel" stroke-miterlimit="10"/><path fill="none" stroke="#e5e5e5" paint-order="fill stroke markers" d=" M 55 101 L 395 101" stroke-linejoin="bevel" stroke-miterlimit="10"/><path fill="none" stroke="#e5e5e5" paint-order="fill stroke markers" d=" M 55 53 L 395 53" stroke-linejoin="bevel" stroke-miterlimit="10"/></g><g><path fill="none" stroke="none"/><path fill="none" stroke="#1f77b4" paint-order="fill stroke markers" d=" M 55 197.8 L 57.833333333333336 197.8 L 60.666666666666664 197.8 L 63.5 197.8 L 66.33333333333333 197.8 L 69.16666666666667 197.8 L 72 197.8 L 74.83333333333334 197.8 L 77.66666666666667 197.8 L 80.5 197.8 L 83.33333333333334 197.8 L 86.16666666666667 197.8 L 89 197.8 L 91.83333333333334 197.8 L 94.66666666666667 197.8 L 97.5 197.8 L 100.33333333333334 197.8 L 103.16666666666667 197.8 L 106 197.8 L 108.83333333333334 197.8 L 111.66666666666667 197.8 L 114.5 101.4 L 117.33333333333334 101.4 L 120.16666666666667 101.4 L 123 101.4 L 125.83333333333334 101.4 L 128.66666666666669 101.4 L 131.5 101.4 L 134.33333333333334 101.4 L 137.16666666666669 101.4 L 140 101.4 L 142.83333333333334 101.4 L 145.66666666666669 101.4 L 148.5 101.4 L 151.33333333333334 101.4 L 154.16666666666669 101.4 L 157 101.4 L 159.83333333333334 101.4 L 162.66666666666669 101.4 L 165.5 101.4 L 168.33333333333334 101.4 L 171.16666666666669 101.4 L 174 101.4 L 176.83333333333334 101.4 L 179.66666666666669 101.4 L 182.5 101.4 L 185.33333333333334 101.4 L 188.16666666666669 101.4 L 191 101.4 L 193.83333333333334 101.4 L 196.66666666666669 101.4 L 199.5 101.4 L 202.33333333333334 101.4 L 205.16666666666669 101.4 L 208 101.4 L 210.83333333333334 101.4 L 213.66666666666669 101.4 L 216.5 101.4 L 219.33333333333334 101.4 L 222.16666666666669 101.4 L 225 101.4 L 227.83333333333334 101.4 L 230.66666666666669 101.4 L 233.5 101.4 L 236.33333333333334 101.4 L 239.16666666666669 101.4 L 242 101.4 L 244.83333333333334 101.4 L 247.66666666666669 101.4 L 250.5 101.4 L 253.33333333333334 101.4 L 256.1666666666667 101.4 L 259 101.4 L 261.83333333333337 101.4 L 264.6666666666667 101.4 L 267.5 101.4 L 270.33333333333337 101.4 L 273.1666666666667 101.4 L 276 101.4 L 278.83333333333337 101.4 L 281.6666666666667 101.4 L 284.5 101.4 L 287.33333333333337 101.4 L 290.1666666666667 101.4 L 293 101.4 L 295.83333333333337 101.4 L 298.6666666666667 101.4 L 301.5 101.4 L 304.33333333333337 101.4 L 307.1666666666667 101.4 L 310 101.4 L 312.83333333333337 101.4 L 315.6666666666667 101.4 L 318.5 101.4 L 321.33333333333337 101.4 L 324.1666666666667 101.4 L 327 101.4 L 329.83333333333337 101.4 L 332.6666666666667 101.4 L 335.5 101.4 L 338.33333333333337 101.4 L 341.1666666666667 101.4 L 344 101.4 L 346.83333333333337 101.4 L 349.6666666666667 101.4 L 352.5 101.4 L 355.33333333333337 101.4 L 358.1666666666667 101.4 L 361 101.4 L 363.83333333333337 101.4 L 366.6666666666667 101.4 L 369.5 101.4 L 372.33333333333337 101.4 L 375.1666666666667 101.4 L 378 101.4 L 380.83333333333337 101.4 L 383.6666666666667 101.4 L 386.5 101.4 L 389.33333333333337 101.4 L 392.1666666666667 101.4" stroke-linejoin="bevel" stroke-miterlimit="10" stroke-width="2"/></g><g><path fill="none" stroke="none"/><path fill="none" stroke="#ff7f0e" paint-order="fill stroke markers" d=" M 55 197.8 L 57.833333333333336 197.8 L 60.666666666666664 197.8 L 63.5 197.8 L 66.33333333333333 197.8 L 69.16666666666667 197.8 L 72 197.8 L 74.83333333333334 197.8 L 77.66666666666667 197.8 L 80.5 197.8 L 83.33333333333334 197.8 L 86.16666666666667 197.8 L 89 197.8 L 91.83333333333334 197.8 L 94.66666666666667 197.8 L 97.5 197.8 L 100.33333333333334 197.8 L 103.16666666666667 197.8 L 106 197.8 L 108.83333333333334 197.8 L 111.66666666666667 197.8 L 114.5 198.25904761904764 L 117.33333333333334 168.67092467532467 L 120.16666666666667 129.83284941313758 L 123 89.26704754961038 L 125.83333333333334 55.18562696186055 L 128.66666666666669 33.67554845852504 L 131.5 27.721922499241742 L 134.33333333333334 36.930958787846606 L 137.16666666666669 57.949401146360486 L 140 85.4269445192817 L 142.83333333333334 113.27638804951252 L 145.66666666666669 135.9521728733092 L 148.5 149.4925524392499 L 151.33333333333334 152.1431458129686 L 154.16666666666669 144.4808477083078 L 157 129.06408799358456 L 159.83333333333334 109.72649403048008 L 162.66666666666669 90.68971267005963 L 165.5 75.68915406229563 L 168.33333333333334 67.28427878814284 L 171.16666666666669 66.47120040166018 L 174 72.64367366292134 L 176.83333333333334 83.87497158598251 L 179.66666666666669 97.43246201550232 L 182.5 110.39958038703642 L 185.33333333333334 120.27131755975877 L 188.16666666666669 125.40811248083268 L 191 125.27268178650375 L 193.83333333333334 120.42488142100521 L 196.66666666666669 112.30007381068963 L 199.5 102.836721879559 L 202.33333333333334 94.04211121637924 L 205.16666666666669 87.58835414063033 L 208 84.51552513452162 L 210.83333333333334 85.08981893017727 L 213.66666666666669 88.82911846208438 L 216.5 94.67399424089609 L 219.33333333333334 101.25561192071254 L 222.16666666666669 107.19776096335154 L 225 111.38981443158629 L 227.83333333333334 113.17956674264295 L 230.66666666666669 112.4559045697196 L 233.5 109.61609384703263 L 236.33333333333334 105.43581603968957 L 239.16666666666669 100.87749016829717 L 242 96.88103224477798 L 244.83333333333334 94.18021497613071 L 247.66666666666669 93.17836414144072 L 250.5 93.90198133663719 L 253.33333333333334 96.03359000547448 L 256.1666666666667 99.00930025376977 L 259 102.15525265168856 L 261.83333333333337 104.8320227636132 L 264.6666666666667 106.55761861023238 L 267.5 107.08690595585931 L 270.33333333333337 106.43615523269142 L 273.1666666666667 104.85340161592163 L 276 102.74595800497545 L 278.83333333333337 100.58374962693652 L 281.6666666666667 98.8000344925294 L 284.5 97.70941138629982 L 287.33333333333337 97.4575860230822 L 290.1666666666667 98.00962161684329 L 293 99.17510804473847 L 295.83333333333337 100.66153957249908 L 298.6666666666667 102.14249184053509 L 301.5 103.32561688070307 L 304.33333333333337 104.00702516983662 L 307.1666666666667 104.10267391579596 L 310 103.65287710380144 L 312.83333333333337 102.8017619626486 L 315.6666666666667 101.75826766913447 L 318.5 100.74826636795135 L 321.33333333333337 99.9681742708838 L 324.1666666666667 99.54907793002627 L 327 99.53740866214328 L 329.83333333333337 99.8943150945225 L 332.6666666666667 100.51196801139646 L 335.5 101.24186095989376 L 338.33333333333337 101.92829628387261 L 341.1666666666667 102.4399089394787 L 344 102.69319102767929 L 346.83333333333337 102.66417243628614 L 349.6666666666667 102.38714429825362 L 352.5 101.94198742595724 L 355.33333333333337 101.43376391545857 L 358.1666666666667 100.96939070101759 L 361 100.63630396617195 L 363.83333333333337 100.48713335449375 L 366.6666666666667 100.53280996851684 L 369.5 100.74461893838772 L 372.33333333333337 101.06388648176008 L 375.1666666666667 101.41661369465001 L 378 101.72966251962127 L 380.83333333333337 101.9451354254981 L 383.6666666666667 102.0302870761979 L 386.5 101.98145907325721 L 389.33333333333337 101.82186360535663 L 392.1666666666667 101.5942761259315" stroke-linejoin="bevel" stroke-miterlimit="10" stroke-width="2"/></g><g><path fill="none" stroke="none"/><path fill="none" stroke="#1f77b4" paint-order="fill stroke markers" d=" M 55 197.8 L 57.833333333333336 197.8 L 60.666666666666664 197.8 L 63.5 197.8 L 66.33333333333333 197.8 L 69.16666666666667 197.8 L 72 197.8 L 74.83333333333334 197.8 L 77.66666666666667 197.8 L 80.5 197.8 L 83.33333333333334 197.8 L 86.16666666666667 197.8 L 89 197.8 L 91.83333333333334 197.8 L 94.66666666666667 197.8 L 97.5 197.8 L 100.33333333333334 197.8 L 103.16666666666667 197.8 L 106 197.8 L 108.83333333333334 197.8 L 111.66666666666667 197.8 L 114.5 101.4 L 117.33333333333334 101.4 L 120.16666666666667 101.4 L 123 101.4 L 125.83333333333334 101.4 L 128.66666666666669 101.4 L 131.5 101.4 L 134.33333333333334 101.4 L 137.16666666666669 101.4 L 140 101.4 L 142.83333333333334 101.4 L 145.66666666666669 101.4 L 148.5 101.4 L 151.33333333333334 101.4 L 154.16666666666669 101.4 L 157 101.4 L 159.83333333333334 101.4 L 162.66666666666669 101.4 L 165.5 101.4 L 168.33333333333334 101.4 L 171.16666666666669 101.4 L 174 101.4 L 176.83333333333334 101.4 L 179.66666666666669 101.4 L 182.5 101.4 L 185.33333333333334 101.4 L 188.16666666666669 101.4 L 191 101.4 L 193.83333333333334 101.4 L 196.66666666666669 101.4 L 199.5 101.4 L 202.33333333333334 101.4 L 205.16666666666669 101.4 L 208 101.4 L 210.83333333333334 101.4 L 213.66666666666669 101.4 L 216.5 101.4 L 219.33333333333334 101.4 L 222.16666666666669 101.4 L 225 101.4 L 227.83333333333334 101.4 L 230.66666666666669 101.4 L 233.5 101.4 L 236.33333333333334 101.4 L 239.16666666666669 101.4 L 242 101.4 L 244.83333333333334 101.4 L 247.66666666666669 101.4 L 250.5 101.4 L 253.33333333333334 101.4 L 256.1666666666667 101.4 L 259 101.4 L 261.83333333333337 101.4 L 264.6666666666667 101.4 L 267.5 101.4 L 270.33333333333337 101.4 L 273.1666666666667 101.4 L 276 101.4 L 278.83333333333337 101.4 L 281.6666666666667 101.4 L 284.5 101.4 L 287.33333333333337 101.4 L 290.1666666666667 101.4 L 293 101.4 L 295.83333333333337 101.4 L 298.6666666666667 101.4 L 301.5 101.4 L 304.33333333333337 101.4 L 307.1666666666667 101.4 L 310 101.4 L 312.83333333333337 101.4 L 315.6666666666667 101.4 L 318.5 101.4 L 321.33333333333337 101.4 L 324.1666666666667 101.4 L 327 101.4 L 329.83333333333337 101.4 L 332.6666666666667 101.4 L 335.5 101.4 L 338.33333333333337 101.4 L 341.1666666666667 101.4 L 344 101.4 L 346.83333333333337 101.4 L 349.6666666666667 101.4 L 352.5 101.4 L 355.33333333333337 101.4 L 358.1666666666667 101.4 L 361 101.4 L 363.83333333333337 101.4 L 366.6666666666667 101.4 L 369.5 101.4 L 372.33333333333337 101.4 L 375.1666666666667 101.4 L 378 101.4 L 380.83333333333337 101.4 L 383.6666666666667 101.4 L 386.5 101.4 L 389.33333333333337 101.4 L 392.1666666666667 101.4" stroke-linejoin="bevel" stroke-miterlimit="10" stroke-width="2"/></g><g><path fill="none" stroke="none"/><path fill="none" stroke="#2ca02c" paint-order="fill stroke markers" d=" M 55 197.8 L 57.833333333333336 197.8 L 60.666666666666664 197.8 L 63.5 197.8 L 66.33333333333333 197.8 L 69.16666666666667 197.8 L 72 197.8 L 74.83333333333334 197.8 L 77.66666666666667 197.8 L 80.5 197.8 L 83.33333333333334 197.8 L 86.16666666666667 197.8 L 89 197.8 L 91.83333333333334 197.8 L 94.66666666666667 197.8 L 97.5 197.8 L 100.33333333333334 197.8 L 103.16666666666667 197.8 L 106 197.8 L 108.83333333333334 197.8 L 111.66666666666667 197.8 L 114.5 198.25904761904764 L 117.33333333333334 159.9536103896104 L 120.16666666666667 127.26539190664408 L 123 92.09373124788256 L 125.83333333333334 62.532767956333515 L 128.66666666666669 43.12544689672066 L 131.5 36.28467214679915 L 134.33333333333334 41.88163448878953 L 137.16666666666669 57.5669280684495 L 140 79.43039309291649 L 142.83333333333334 102.87325026047495 L 145.66666666666669 123.50951470293792 L 148.5 137.93178024519779 L 151.33333333333334 144.21827127385592 L 154.16666666666669 142.11793555590108 L 157 132.91507817957202 L 159.83333333333334 119.03250583356164 L 162.66666666666669 103.47280472239389 L 165.5 89.21572093103305 L 168.33333333333334 78.6847601134415 L 171.16666666666669 73.37145300876338 L 174 73.66782249981337 L 176.83333333333334 78.91468511921067 L 179.66666666666669 87.63378000257067 L 182.5 97.88211748381559 L 185.33333333333334 107.65161645555348 L 188.16666666666669 115.237267255545 L 191 119.51101129195764 L 193.83333333333334 120.06227070323958 L 196.66666666666669 117.19426380138094 L 199.5 111.79235106858916 L 202.33333333333334 105.10191498599352 L 205.16666666666669 98.46549402650734 L 208 93.07084657142306 L 210.83333333333334 89.75407140587662 L 213.66666666666669 88.88724237662584 L 216.5 90.36163311122009 L 219.33333333333334 93.65922026326058 L 222.16666666666669 97.99006793965702 L 225 102.46376804420503 L 227.83333333333334 106.26042540686065 L 230.66666666666669 108.7704873101503 L 233.5 109.68163710906568 L 236.33333333333334 109.00284484369791 L 239.16666666666669 107.02803973486337 L 242 104.2524613880392 L 244.83333333333334 101.26184591304288 L 247.66666666666669 98.61731062462226 L 250.5 96.75710416050688 L 253.33333333333334 95.93106876905787 L 256.1666666666667 96.1760664178486 L 259 97.33236195516812 L 261.83333333333337 99.09359166450085 L 264.6666666666667 101.07770212854852 L 267.5 102.9038361080733 L 270.33333333333337 104.26069588841305 L 273.1666666666667 104.95501063288638 L 276 104.93354121831666 L 278.83333333333337 104.27752449031085 L 281.6666666666667 103.17353395193136 L 284.5 101.86854540371993 L 287.33333333333337 100.61899506049961 L 290.1666666666667 99.64364052170578 L 293 99.08829107845618 L 295.83333333333337 99.00746771422985 L 298.6666666666667 99.3644617942278 L 301.5 100.0477939374033 L 304.33333333333337 100.89934112930713 L 307.1666666666667 101.74781302348245 L 310 102.44097915768614 L 312.83333333333337 102.87098637775236 L 315.6666666666667 102.9889600344368 L 318.5 102.80742098018646 L 321.33333333333337 102.39140018392821 L 324.1666666666667 101.8410700974321 L 327 101.2699329115791 L 329.83333333333337 100.78296834856359 L 332.6666666666667 100.45867521349295 L 335.5 100.3378155968713 L 338.33333333333337 100.42016173331889 L 341.1666666666667 100.66896587870549 L 344 101.02151489228554 L 346.83333333333337 101.40321396831926 L 349.6666666666667 101.742285411523 L 352.5 101.98237260750197 L 355.33333333333337 102.09100885952203 L 358.1666666666667 102.06287487054908 L 361 101.91782213177825 L 363.83333333333337 101.69458322322185 L 366.6666666666667 101.44176617451917 L 369.5 101.20804589300803 L 372.33333333333337 101.03340336605184 L 375.1666666666667 100.94287494906723 L 378 100.943664641966 L 380.83333333333337 101.02577530964109 L 383.6666666666667 101.16566511246218 L 386.5 101.33194471311141 L 389.33333333333337 101.49187018415171 L 392.1666666666667 101.61737797232563" stroke-linejoin="bevel" stroke-miterlimit="10" stroke-width="2"/></g><g><path fill="none" stroke="none"/><path fill="none" stroke="#1f77b4" paint-order="fill stroke markers" d=" M 55 197.8 L 57.833333333333336 197.8 L 60.666666666666664 197.8 L 63.5 197.8 L 66.33333333333333 197.8 L 69.16666666666667 197.8 L 72 197.8 L 74.83333333333334 197.8 L 77.66666666666667 197.8 L 80.5 197.8 L 83.33333333333334 197.8 L 86.16666666666667 197.8 L 89 197.8 L 91.83333333333334 197.8 L 94.66666666666667 197.8 L 97.5 197.8 L 100.33333333333334 197.8 L 103.16666666666667 197.8 L 106 197.8 L 108.83333333333334 197.8 L 111.66666666666667 197.8 L 114.5 101.4 L 117.33333333333334 101.4 L 120.16666666666667 101.4 L 123 101.4 L 125.83333333333334 101.4 L 128.66666666666669 101.4 L 131.5 101.4 L 134.33333333333334 101.4 L 137.16666666666669 101.4 L 140 101.4 L 142.83333333333334 101.4 L 145.66666666666669 101.4 L 148.5 101.4 L 151.33333333333334 101.4 L 154.16666666666669 101.4 L 157 101.4 L 159.83333333333334 101.4 L 162.66666666666669 101.4 L 165.5 101.4 L 168.33333333333334 101.4 L 171.16666666666669 101.4 L 174 101.4 L 176.83333333333334 101.4 L 179.66666666666669 101.4 L 182.5 101.4 L 185.33333333333334 101.4 L 188.16666666666669 101.4 L 191 101.4 L 193.83333333333334 101.4 L 196.66666666666669 101.4 L 199.5 101.4 L 202.33333333333334 101.4 L 205.16666666666669 101.4 L 208 101.4 L 210.83333333333334 101.4 L 213.66666666666669 101.4 L 216.5 101.4 L 219.33333333333334 101.4 L 222.16666666666669 101.4 L 225 101.4 L 227.83333333333334 101.4 L 230.66666666666669 101.4 L 233.5 101.4 L 236.33333333333334 101.4 L 239.16666666666669 101.4 L 242 101.4 L 244.83333333333334 101.4 L 247.66666666666669 101.4 L 250.5 101.4 L 253.33333333333334 101.4 L 256.1666666666667 101.4 L 259 101.4 L 261.83333333333337 101.4 L 264.6666666666667 101.4 L 267.5 101.4 L 270.33333333333337 101.4 L 273.1666666666667 101.4 L 276 101.4 L 278.83333333333337 101.4 L 281.6666666666667 101.4 L 284.5 101.4 L 287.33333333333337 101.4 L 290.1666666666667 101.4 L 293 101.4 L 295.83333333333337 101.4 L 298.6666666666667 101.4 L 301.5 101.4 L 304.33333333333337 101.4 L 307.1666666666667 101.4 L 310 101.4 L 312.83333333333337 101.4 L 315.6666666666667 101.4 L 318.5 101.4 L 321.33333333333337 101.4 L 324.1666666666667 101.4 L 327 101.4 L 329.83333333333337 101.4 L 332.6666666666667 101.4 L 335.5 101.4 L 338.33333333333337 101.4 L 341.1666666666667 101.4 L 344 101.4 L 346.83333333333337 101.4 L 349.6666666666667 101.4 L 352.5 101.4 L 355.33333333333337 101.4 L 358.1666666666667 101.4 L 361 101.4 L 363.83333333333337 101.4 L 366.6666666666667 101.4 L 369.5 101.4 L 372.33333333333337 101.4 L 375.1666666666667 101.4 L 378 101.4 L 380.83333333333337 101.4 L 383.6666666666667 101.4 L 386.5 101.4 L 389.33333333333337 101.4 L 392.1666666666667 101.4" stroke-linejoin="bevel" stroke-miterlimit="10" stroke-width="2"/></g><g><path fill="none" stroke="none"/><path fill="none" stroke="#d62728" paint-order="fill stroke markers" d=" M 55 197.8 L 57.833333333333336 197.8 L 60.666666666666664 197.8 L 63.5 197.8 L 66.33333333333333 197.8 L 69.16666666666667 197.8 L 72 197.8 L 74.83333333333334 197.8 L 77.66666666666667 197.8 L 80.5 197.8 L 83.33333333333334 197.8 L 86.16666666666667 197.8 L 89 197.8 L 91.83333333333334 197.8 L 94.66666666666667 197.8 L 97.5 197.8 L 100.33333333333334 197.8 L 103.16666666666667 197.8 L 106 197.8 L 108.83333333333334 197.8 L 111.66666666666667 197.8 L 114.5 198.25904761904764 L 117.33333333333334 130.89589610389612 L 120.16666666666667 130.03970878976097 L 123 96.92094900056465 L 125.83333333333334 80.89883771353284 L 128.66666666666669 63.72567984240109 L 131.5 56.25138822981006 L 134.33333333333334 54.66195030634853 L 137.16666666666669 60.213252717129365 L 140 70.57939774993919 L 142.83333333333334 84.13674608927077 L 145.66666666666669 98.50481131227083 L 148.5 111.68169220917055 L 151.33333333333334 121.95242850462982 L 154.16666666666669 128.23996246985723 L 157 130.11638068303242 L 159.83333333333334 127.81909000186725 L 162.66666666666669 122.13033761616707 L 165.5 114.21447290427066 L 168.33333333333334 105.41196552600877 L 171.16666666666669 97.03609479813701 L 174 90.19433938157327 L 176.83333333333334 85.65890774281587 L 179.66666666666669 83.7976130708278 L 182.5 84.56840177829653 L 185.33333333333334 87.57094090274545 L 188.16666666666669 92.14187893299574 L 191 97.47571476165592 L 193.83333333333334 102.75176629629915 L 196.66666666666669 107.24903844194746 L 199.5 110.43450704808255 L 202.33333333333334 112.01561380733439 L 205.16666666666669 111.95373404501568 L 208 110.44112178461963 L 210.83333333333334 107.8485936013244 L 213.66666666666669 104.65443601512361 L 216.5 101.36643869555509 L 219.33333333333334 98.44857335171368 L 222.16666666666669 96.26191001557959 L 225 95.02632704301824 L 227.83333333333334 94.80597093389886 L 230.66666666666669 95.51781658761736 L 233.5 96.95956565535352 L 236.33333333333334 98.85087444662243 L 239.16666666666669 100.88073627233454 L 242 102.75379636098417 L 244.83333333333334 104.22933185435133 L 247.66666666666669 105.1483413744919 L 250.5 105.44633749605588 L 253.33333333333334 105.15167600646967 L 256.1666666666667 104.37126887118124 L 259 103.26706117446787 L 261.83333333333337 102.0275481427339 L 264.6666666666667 100.83881439538452 L 267.5 99.8591424930024 L 270.33333333333337 99.20029331620094 L 273.1666666666667 98.9172940035388 L 276 99.00719081417434 L 278.83333333333337 99.41593690445835 L 281.6666666666667 100.0515559765072 L 284.5 100.80106509902281 L 287.33333333333337 101.54840289922632 L 290.1666666666667 102.19077847119256 L 293 102.65136300946723 L 295.83333333333337 102.88698276544157 L 298.6666666666667 102.89031116420026 L 301.5 102.68687260757461 L 304.33333333333337 102.32785102409464 L 307.1666666666667 101.88016375708159 L 310 101.41547524313631 L 312.83333333333337 100.99978398555413 L 315.6666666666667 100.6849546968357 L 318.5 100.50314591535931 L 321.33333333333337 100.46457790357276 L 324.1666666666667 100.55857529709553 L 327 100.75737471217933 L 329.83333333333337 101.02186321132677 L 332.6666666666667 101.30824048830848 L 335.5 101.57458281923158 L 338.33333333333337 101.78641459426576 L 341.1666666666667 101.92063003985339 L 344 101.96740872405731 L 346.83333333333337 101.93008492867101 L 349.6666666666667 101.82321759360781 L 352.5 101.66932810531735 L 355.33333333333337 101.49490467850026 L 358.1666666666667 101.32630629579299 L 361 101.18614227586926 L 363.83333333333337 101.09057356536387 L 366.6666666666667 101.04780488573279 L 369.5 101.05784256777902 L 372.33333333333337 101.11341000511847 L 375.1666666666667 101.20176510152486 L 378 101.30706827335435 L 380.83333333333337 101.41291292660853 L 383.6666666666667 101.50465129796505 L 386.5 101.57121779946927 L 389.33333333333337 101.60625459173121 L 392.1666666666667 101.60846215822474" stroke-linejoin="bevel" stroke-miterlimit="10" stroke-width="2"/></g></g></g><g clip-path="url(#TawgJaJWOAat)"><g><g/><g><path fill="#ffffff" stroke="#e5e5e5" paint-order="fill stroke markers" d=" M 272.453125 127 L 385 127 L 385 236 L 272.453125 236 L 272.453125 127 Z" fill-opacity="0.95" stroke-linejoin="bevel" stroke-miterlimit="10" stroke-opacity="0.5"/><text fill="#444444" stroke="none" font-family="helvetica" font-size="12pt" font-style="normal" font-weight="normal" text-decoration="normal" x="307.453125" y="147" text-anchor="start" dominant-baseline="central">reference</text><g><path fill="none" stroke="#1f77b4" paint-order="fill stroke markers" d=" M 282.453125 147 L 302.453125 147" stroke-linejoin="bevel" stroke-miterlimit="10" stroke-width="2"/></g><g><path fill="none" stroke="#1f77b4" paint-order="fill stroke markers" d=" M 282.453125 147 L 302.453125 147" stroke-linejoin="bevel" stroke-miterlimit="10" stroke-width="2"/></g><g><path fill="none" stroke="#1f77b4" paint-order="fill stroke markers" d=" M 282.453125 147 L 302.453125 147" stroke-linejoin="bevel" stroke-miterlimit="10" stroke-width="2"/></g><text fill="#444444" stroke="none" font-family="helvetica" font-size="12pt" font-style="normal" font-weight="normal" text-decoration="normal" x="307.453125" y="170" text-anchor="start" dominant-baseline="central">kd = 0.01</text><g><path fill="none" stroke="#ff7f0e" paint-order="fill stroke markers" d=" M 282.453125 170 L 302.453125 170" stroke-linejoin="bevel" stroke-miterlimit="10" stroke-width="2"/></g><text fill="#444444" stroke="none" font-family="helvetica" font-size="12pt" font-style="normal" font-weight="normal" text-decoration="normal" x="307.453125" y="193" text-anchor="start" dominant-baseline="central">kd = 0.1</text><g><path fill="none" stroke="#2ca02c" paint-order="fill stroke markers" d=" M 282.453125 193 L 302.453125 193" stroke-linejoin="bevel" stroke-miterlimit="10" stroke-width="2"/></g><text fill="#444444" stroke="none" font-family="helvetica" font-size="12pt" font-style="normal" font-weight="normal" text-decoration="normal" x="307.453125" y="216" text-anchor="start" dominant-baseline="central">kd = 0.4</text><g><path fill="none" stroke="#d62728" paint-order="fill stroke markers" d=" M 282.453125 216 L 302.453125 216" stroke-linejoin="bevel" stroke-miterlimit="10" stroke-width="2"/></g></g></g></g><g><g fill="#444444"><path fill="none" stroke="black" paint-order="fill stroke markers" d=" M 55 246 L 395 246" stroke-linejoin="bevel" stroke-miterlimit="10"/><path fill="none" stroke="black" paint-order="fill stroke markers" d=" M 55 252 L 55 244" stroke-linejoin="bevel" stroke-miterlimit="10"/><path fill="none" stroke="black" paint-order="fill stroke markers" d=" M 112 252 L 112 244" stroke-linejoin="bevel" stroke-miterlimit="10"/><path fill="none" stroke="black" paint-order="fill stroke markers" d=" M 168 252 L 168 244" stroke-linejoin="bevel" stroke-miterlimit="10"/><path fill="none" stroke="black" paint-order="fill stroke markers" d=" M 225 252 L 225 244" stroke-linejoin="bevel" stroke-miterlimit="10"/><path fill="none" stroke="black" paint-order="fill stroke markers" d=" M 282 252 L 282 244" stroke-linejoin="bevel" stroke-miterlimit="10"/><path fill="none" stroke="black" paint-order="fill stroke markers" d=" M 338 252 L 338 244" stroke-linejoin="bevel" stroke-miterlimit="10"/><path fill="none" stroke="black" paint-order="fill stroke markers" d=" M 395 252 L 395 244" stroke-linejoin="bevel" stroke-miterlimit="10"/><path fill="none" stroke="black" paint-order="fill stroke markers" d=" M 55 250 L 55 246" stroke-linejoin="bevel" stroke-miterlimit="10"/><path fill="none" stroke="black" paint-order="fill stroke markers" d=" M 66 250 L 66 246" stroke-linejoin="bevel" stroke-miterlimit="10"/><path fill="none" stroke="black" paint-order="fill stroke markers" d=" M 78 250 L 78 246" stroke-linejoin="bevel" stroke-miterlimit="10"/><path fill="none" stroke="black" paint-order="fill stroke markers" d=" M 89 250 L 89 246" stroke-linejoin="bevel" stroke-miterlimit="10"/><path fill="none" stroke="black" paint-order="fill stroke markers" d=" M 100 250 L 100 246" stroke-linejoin="bevel" stroke-miterlimit="10"/><path fill="none" stroke="black" paint-order="fill stroke markers" d=" M 112 250 L 112 246" stroke-linejoin="bevel" stroke-miterlimit="10"/><path fill="none" stroke="black" paint-order="fill stroke markers" d=" M 123 250 L 123 246" stroke-linejoin="bevel" stroke-miterlimit="10"/><path fill="none" stroke="black" paint-order="fill stroke markers" d=" M 134 250 L 134 246" stroke-linejoin="bevel" stroke-miterlimit="10"/><path fill="none" stroke="black" paint-order="fill stroke markers" d=" M 146 250 L 146 246" stroke-linejoin="bevel" stroke-miterlimit="10"/><path fill="none" stroke="black" paint-order="fill stroke markers" d=" M 157 250 L 157 246" stroke-linejoin="bevel" stroke-miterlimit="10"/><path fill="none" stroke="black" paint-order="fill stroke markers" d=" M 168 250 L 168 246" stroke-linejoin="bevel" stroke-miterlimit="10"/><path fill="none" stroke="black" paint-order="fill stroke markers" d=" M 180 250 L 180 246" stroke-linejoin="bevel" stroke-miterlimit="10"/><path fill="none" stroke="black" paint-order="fill stroke markers" d=" M 191 250 L 191 246" stroke-linejoin="bevel" stroke-miterlimit="10"/><path fill="none" stroke="black" paint-order="fill stroke markers" d=" M 202 250 L 202 246" stroke-linejoin="bevel" stroke-miterlimit="10"/><path fill="none" stroke="black" paint-order="fill stroke markers" d=" M 214 250 L 214 246" stroke-linejoin="bevel" stroke-miterlimit="10"/><path fill="none" stroke="black" paint-order="fill stroke markers" d=" M 225 250 L 225 246" stroke-linejoin="bevel" stroke-miterlimit="10"/><path fill="none" stroke="black" paint-order="fill stroke markers" d=" M 236 250 L 236 246" stroke-linejoin="bevel" stroke-miterlimit="10"/><path fill="none" stroke="black" paint-order="fill stroke markers" d=" M 248 250 L 248 246" stroke-linejoin="bevel" stroke-miterlimit="10"/><path fill="none" stroke="black" paint-order="fill stroke markers" d=" M 259 250 L 259 246" stroke-linejoin="bevel" stroke-miterlimit="10"/><path fill="none" stroke="black" paint-order="fill stroke markers" d=" M 270 250 L 270 246" stroke-linejoin="bevel" stroke-miterlimit="10"/><path fill="none" stroke="black" paint-order="fill stroke markers" d=" M 282 250 L 282 246" stroke-linejoin="bevel" stroke-miterlimit="10"/><path fill="none" stroke="black" paint-order="fill stroke markers" d=" M 293 250 L 293 246" stroke-linejoin="bevel" stroke-miterlimit="10"/><path fill="none" stroke="black" paint-order="fill stroke markers" d=" M 304 250 L 304 246" stroke-linejoin="bevel" stroke-miterlimit="10"/><path fill="none" stroke="black" paint-order="fill stroke markers" d=" M 316 250 L 316 246" stroke-linejoin="bevel" stroke-miterlimit="10"/><path fill="none" stroke="black" paint-order="fill stroke markers" d=" M 327 250 L 327 246" stroke-linejoin="bevel" stroke-miterlimit="10"/><path fill="none" stroke="black" paint-order="fill stroke markers" d=" M 338 250 L 338 246" stroke-linejoin="bevel" stroke-miterlimit="10"/><path fill="none" stroke="black" paint-order="fill stroke markers" d=" M 350 250 L 350 246" stroke-linejoin="bevel" stroke-miterlimit="10"/><path fill="none" stroke="black" paint-order="fill stroke markers" d=" M 361 250 L 361 246" stroke-linejoin="bevel" stroke-miterlimit="10"/><path fill="none" stroke="black" paint-order="fill stroke markers" d=" M 372 250 L 372 246" stroke-linejoin="bevel" stroke-miterlimit="10"/><path fill="none" stroke="black" paint-order="fill stroke markers" d=" M 384 250 L 384 246" stroke-linejoin="bevel" stroke-miterlimit="10"/><path fill="" stroke="black" paint-order="fill stroke markers" d=" M 395 250 L 395 246" stroke-linejoin="bevel" stroke-miterlimit="10"/><g transform="translate(55,257) rotate(0,0,0)"><text fill="" stroke="none" font-family="helvetica" font-size="12pt" font-style="normal" font-weight="normal" text-decoration="normal" x="0" y="0" text-anchor="middle" dominant-baseline="hanging">0</text><g transform="rotate(0,0,0) translate(-55,-257) translate(112,257) rotate(0,0,0)"><text fill="" stroke="none" font-family="helvetica" font-size="12pt" font-style="normal" font-weight="normal" text-decoration="normal" x="0" y="0" text-anchor="middle" dominant-baseline="hanging">20</text><g transform="rotate(0,0,0) translate(-112,-257) translate(168,257) rotate(0,0,0)"><text fill="" stroke="none" font-family="helvetica" font-size="12pt" font-style="normal" font-weight="normal" text-decoration="normal" x="0" y="0" text-anchor="middle" dominant-baseline="hanging">40</text><g transform="rotate(0,0,0) translate(-168,-257) translate(225,257) rotate(0,0,0)"><text fill="" stroke="none" font-family="helvetica" font-size="12pt" font-style="normal" font-weight="normal" text-decoration="normal" x="0" y="0" text-anchor="middle" dominant-baseline="hanging">60</text><g transform="rotate(0,0,0) translate(-225,-257) translate(282,257) rotate(0,0,0)"><text fill="" stroke="none" font-family="helvetica" font-size="12pt" font-style="normal" font-weight="normal" text-decoration="normal" x="0" y="0" text-anchor="middle" dominant-baseline="hanging">80</text><g transform="rotate(0,0,0) translate(-282,-257) translate(338,257) rotate(0,0,0)"><text fill="" stroke="none" font-family="helvetica" font-size="12pt" font-style="normal" font-weight="normal" text-decoration="normal" x="0" y="0" text-anchor="middle" dominant-baseline="hanging">100</text><g transform="rotate(0,0,0) translate(-338,-257) translate(395,257) rotate(0,0,0)"><text fill="" stroke="none" font-family="helvetica" font-size="12pt" font-style="normal" font-weight="normal" text-decoration="normal" x="0" y="0" text-anchor="middle" dominant-baseline="hanging">120</text><g transform="rotate(0,0,0) translate(-395,-257) translate(225,281) rotate(0,0,0)"><text fill="" stroke="none" font-family="helvetica" font-size="12pt" font-style="italic" font-weight="normal" text-decoration="normal" x="0" y="0" text-anchor="middle" dominant-baseline="hanging">timesteps</text><g transform="rotate(0,0,0) translate(-225,-281)"/></g></g></g></g></g></g></g></g></g><g fill="#444444"><path fill="none" stroke="black" paint-order="fill stroke markers" d=" M 55 246 L 55 5" stroke-linejoin="bevel" stroke-miterlimit="10"/><path fill="none" stroke="black" paint-order="fill stroke markers" d=" M 49 246 L 57 246" stroke-linejoin="bevel" stroke-miterlimit="10"/><path fill="none" stroke="black" paint-order="fill stroke markers" d=" M 49 198 L 57 198" stroke-linejoin="bevel" stroke-miterlimit="10"/><path fill="none" stroke="black" paint-order="fill stroke markers" d=" M 49 150 L 57 150" stroke-linejoin="bevel" stroke-miterlimit="10"/><path fill="none" stroke="black" paint-order="fill stroke markers" d=" M 49 101 L 57 101" stroke-linejoin="bevel" stroke-miterlimit="10"/><path fill="none" stroke="black" paint-order="fill stroke markers" d=" M 49 53 L 57 53" stroke-linejoin="bevel" stroke-miterlimit="10"/><path fill="none" stroke="black" paint-order="fill stroke markers" d=" M 49 5 L 57 5" stroke-linejoin="bevel" stroke-miterlimit="10"/><path fill="none" stroke="black" paint-order="fill stroke markers" d=" M 51 246 L 55 246" stroke-linejoin="bevel" stroke-miterlimit="10"/><path fill="none" stroke="black" paint-order="fill stroke markers" d=" M 51 236 L 55 236" stroke-linejoin="bevel" stroke-miterlimit="10"/><path fill="none" stroke="black" paint-order="fill stroke markers" d=" M 51 227 L 55 227" stroke-linejoin="bevel" stroke-miterlimit="10"/><path fill="none" stroke="black" paint-order="fill stroke markers" d=" M 51 217 L 55 217" stroke-linejoin="bevel" stroke-miterlimit="10"/><path fill="none" stroke="black" paint-order="fill stroke markers" d=" M 51 207 L 55 207" stroke-linejoin="bevel" stroke-miterlimit="10"/><path fill="none" stroke="black" paint-order="fill stroke markers" d=" M 51 198 L 55 198" stroke-linejoin="bevel" stroke-miterlimit="10"/><path fill="none" stroke="black" paint-order="fill stroke markers" d=" M 51 188 L 55 188" stroke-linejoin="bevel" stroke-miterlimit="10"/><path fill="none" stroke="black" paint-order="fill stroke markers" d=" M 51 179 L 55 179" stroke-linejoin="bevel" stroke-miterlimit="10"/><path fill="none" stroke="black" paint-order="fill stroke markers" d=" M 51 169 L 55 169" stroke-linejoin="bevel" stroke-miterlimit="10"/><path fill="none" stroke="black" paint-order="fill stroke markers" d=" M 51 159 L 55 159" stroke-linejoin="bevel" stroke-miterlimit="10"/><path fill="none" stroke="black" paint-order="fill stroke markers" d=" M 51 150 L 55 150" stroke-linejoin="bevel" stroke-miterlimit="10"/><path fill="none" stroke="black" paint-order="fill stroke markers" d=" M 51 140 L 55 140" stroke-linejoin="bevel" stroke-miterlimit="10"/><path fill="none" stroke="black" paint-order="fill stroke markers" d=" M 51 130 L 55 130" stroke-linejoin="bevel" stroke-miterlimit="10"/><path fill="none" stroke="black" paint-order="fill stroke markers" d=" M 51 121 L 55 121" stroke-linejoin="bevel" stroke-miterlimit="10"/><path fill="none" stroke="black" paint-order="fill stroke markers" d=" M 51 111 L 55 111" stroke-linejoin="bevel" stroke-miterlimit="10"/><path fill="none" stroke="black" paint-order="fill stroke markers" d=" M 51 101 L 55 101" stroke-linejoin="bevel" stroke-miterlimit="10"/><path fill="none" stroke="black" paint-order="fill stroke markers" d=" M 51 92 L 55 92" stroke-linejoin="bevel" stroke-miterlimit="10"/><path fill="none" stroke="black" paint-order="fill stroke markers" d=" M 51 82 L 55 82" stroke-linejoin="bevel" stroke-miterlimit="10"/><path fill="none" stroke="black" paint-order="fill stroke markers" d=" M 51 72 L 55 72" stroke-linejoin="bevel" stroke-miterlimit="10"/><path fill="none" stroke="black" paint-order="fill stroke markers" d=" M 51 63 L 55 63" stroke-linejoin="bevel" stroke-miterlimit="10"/><path fill="none" stroke="black" paint-order="fill stroke markers" d=" M 51 53 L 55 53" stroke-linejoin="bevel" stroke-miterlimit="10"/><path fill="none" stroke="black" paint-order="fill stroke markers" d=" M 51 44 L 55 44" stroke-linejoin="bevel" stroke-miterlimit="10"/><path fill="none" stroke="black" paint-order="fill stroke markers" d=" M 51 34 L 55 34" stroke-linejoin="bevel" stroke-miterlimit="10"/><path fill="none" stroke="black" paint-order="fill stroke markers" d=" M 51 24 L 55 24" stroke-linejoin="bevel" stroke-miterlimit="10"/><path fill="none" stroke="black" paint-order="fill stroke markers" d=" M 51 15 L 55 15" stroke-linejoin="bevel" stroke-miterlimit="10"/><path fill="" stroke="black" paint-order="fill stroke markers" d=" M 51 5 L 55 5" stroke-linejoin="bevel" stroke-miterlimit="10"/><g transform="translate(44,246) rotate(0,0,0)"><text fill="" stroke="none" font-family="helvetica" font-size="12pt" font-style="normal" font-weight="normal" text-decoration="normal" x="0" y="0" text-anchor="end" dominant-baseline="central">-5</text><g transform="rotate(0,0,0) translate(-44,-246) translate(44,198) rotate(0,0,0)"><text fill="" stroke="none" font-family="helvetica" font-size="12pt" font-style="normal" font-weight="normal" text-decoration="normal" x="0" y="0" text-anchor="end" dominant-baseline="central">0</text><g transform="rotate(0,0,0) translate(-44,-198) translate(44,150) rotate(0,0,0)"><text fill="" stroke="none" font-family="helvetica" font-size="12pt" font-style="normal" font-weight="normal" text-decoration="normal" x="0" y="0" text-anchor="end" dominant-baseline="central">5</text><g transform="rotate(0,0,0) translate(-44,-150) translate(44,101) rotate(0,0,0)"><text fill="" stroke="none" font-family="helvetica" font-size="12pt" font-style="normal" font-weight="normal" text-decoration="normal" x="0" y="0" text-anchor="end" dominant-baseline="central">10</text><g transform="rotate(0,0,0) translate(-44,-101) translate(44,53) rotate(0,0,0)"><text fill="" stroke="none" font-family="helvetica" font-size="12pt" font-style="normal" font-weight="normal" text-decoration="normal" x="0" y="0" text-anchor="end" dominant-baseline="central">15</text><g transform="rotate(0,0,0) translate(-44,-53) translate(44,5) rotate(0,0,0)"><text fill="" stroke="none" font-family="helvetica" font-size="12pt" font-style="normal" font-weight="normal" text-decoration="normal" x="0" y="0" text-anchor="end" dominant-baseline="central">20</text><g transform="rotate(0,0,0) translate(-44,-5) translate(19,126) rotate(-90,0,0)"><text fill="" stroke="none" font-family="helvetica" font-size="12pt" font-style="italic" font-weight="normal" text-decoration="normal" x="0" y="0" text-anchor="middle" dominant-baseline="alphabetic">output</text><g transform="rotate(90,0,0) translate(-19,-126)"/></g></g></g></g></g></g></g></g></g></g></g></svg>