<svg version="1.1" xmlns="http://www.w3.org/2000/svg" xmlns:xlink="http://www.w3.org/1999/xlink" width="400" height="300" style="width: 400px; height: 300px;"><defs><clipPath id="ySvUEmqLEqPr"><path fill="none" stroke="none" d=" M 55 5 L 395 5 L 395 246 L 55 246 L 55 5 Z"/></clipPath><clipPath id="sIkWKMIzHcxp"><path fill="none" stroke="none" d=" M 55 5 L 395 5 L 395 246 L 55 246 L 55 5 Z"/></clipPath></defs><g><g transform="scale(1,1) translate(0.5,0.5)"><rect fill="#FFFFFF" stroke="none" x="0" y="0" width="400" height="300"/><g><rect fill="none" stroke="#e5e5e5" x="55" y="5" width="340" height="241" stroke-linejoin="bevel" stroke-miterlimit="10"/></g><g clip-path="url(#ySvUEmqLEqPr)"><g><g><path fill="none" stroke="#e5e5e5" paint-order="fill stroke markers" d=" M 112 246 L 112 5" stroke-linejoin="bevel" stroke-miterlimit="10"/><path fill="none" stroke="#e5e5e5" paint-order="fill stroke markers" d=" M 168 246 L 168 5" stroke-linejoin="bevel" stroke-miterlimit="10"/><path fill="none" stroke="#e5e5e5" paint-order="fill stroke markers" d=" M 225 246 L 225 5" stroke-linejoin="bevel" stroke-miterlimit="10"/><path fill="none" stroke="#e5e5e5" paint-order="fill stroke markers" d=" M 282 246 L 282 5" stroke-linejoin="bevel" stroke-miterlimit="10"/><path fill="none" stroke="#e5e5e5" paint-order="fill stroke markers" d=" M 338 246 L 338 5" stroke-linejoin="bevel" stroke-miterlimit="10"/></g><g><path fill="none" stroke="#e5e5e5" paint-order="fill stroke markers" d=" M 55 186 L 395 186" stroke-linejoin="bevel" stroke-miterlimit="10"/><path fill="none" stroke="#e5e5e5" paint-order="fill stroke markers" d=" M 55 126 L 395 126" stroke-linejoin="bevel" stroke-miterlimit="10"/><path fill="none" stroke="#e5e5e5" paint-order="fill stroke markers" d=" M 55 65 L 395 65" stroke-linejoin="bevel" stroke-miterlimit="10"/></g><g><path fill="none" stroke="none"/><path fill="none" stroke="#1f77b4" paint-order="fill stroke markers" d=" M 55 185.75 L 57.833333333333336 185.75 L 60.666666666666664 185.75 L 63.5 185.75 L 66.33333333333333 185.75 L 69.16666666666667 185.75 L 72 185.75 L 74.83333333333334 185.75 L 77.66666666666667 185.75 L 80.5 185.75 L 83.33333333333334 185.75 L 86.16666666666667 185.75 L 89 185.75 L 91.83333333333334 185.75 L 94.66666666666667 185.75 L 97.5 185.75 L 100.33333333333334 185.75 L 103.16666666666667 185.75 L 106 185.75 L 108.83333333333334 185.75 L 111.66666666666667 185.75 L 114.5 65.25 L 117.33333333333334 65.25 L 120.16666666666667 65.25 L 123 65.25 L 125.83333333333334 65.25 L 128.66666666666669 65.25 L 131.5 65.25 L 134.33333333333334 65.25 L 137.16666666666669 65.25 L 140 65.25 L 142.83333333333334 65.25 L 145.66666666666669 65.25 L 148.5 65.25 L 151.33333333333334 65.25 L 154.16666666666669 65.25 L 157 65.25 L 159.83333333333334 65.25 L 162.66666666666669 65.25 L 165.5 65.25 L 168.33333333333334 65.25 L 171.16666666666669 65.25 L 174 65.25 L 176.83333333333334 65.25 L 179.66666666666669 65.25 L 182.5 65.25 L 185.33333333333334 65.25 L 188.16666666666669 65.25 L 191 65.25 L 193.83333333333334 65.25 L 196.66666666666669 65.25 L 199.5 65.25 L 202.33333333333334 65.25 L 205.16666666666669 65.25 L 208 65.25 L 210.83333333333334 65.25 L 213.66666666666669 65.25 L 216.5 65.25 L 219.33333333333334 65.25 L 222.16666666666669 65.25 L 225 65.25 L 227.83333333333334 65.25 L 230.66666666666669 65.25 L 233.5 65.25 L 236.33333333333334 65.25 L 239.16666666666669 65.25 L 242 65.25 L 244.83333333333334 65.25 L 247.66666666666669 65.25 L 250.5 65.25 L 253.33333333333334 65.25 L 256.1666666666667 65.25 L 259 65.25 L 261.83333333333337 65.25 L 264.6666666666667 65.25 L 267.5 65.25 L 270.33333333333337 65.25 L 273.1666666666667 65.25 L 276 65.25 L 278.83333333333337 65.25 L 281.6666666666667 65.25 L 284.5 65.25 L 287.33333333333337 65.25 L 290.1666666666667 65.25 L 293 65.25 L 295.83333333333337 65.25 L 298.6666666666667 65.25 L 301.5 65.25 L 304.33333333333337 65.25 L 307.1666666666667 65.25 L 310 65.25 L 312.83333333333337 65.25 L 315.6666666666667 65.25 L 318.5 65.25 L 321.33333333333337 65.25 L 324.1666666666667 65.25 L 327 65.25 L 329.83333333333337 65.25 L 332.6666666666667 65.25 L 335.5 65.25 L 338.33333333333337 65.25 L 341.1666666666667 65.25 L 344 65.25 L 346.83333333333337 65.25 L 349.6666666666667 65.25 L 352.5 65.25 L 355.33333333333337 65.25 L 358.1666666666667 65.25 L 361 65.25 L 363.83333333333337 65.25 L 366.6666666666667 65.25 L 369.5 65.25 L 372.33333333333337 65.25 L 375.1666666666667 65.25 L 378 65.25 L 380.83333333333337 65.25 L 383.6666666666667 65.25 L 386.5 65.25 L 389.33333333333337 65.25 L 392.1666666666667 65.25" stroke-linejoin="bevel" stroke-miterlimit="10" stroke-width="2"/></g><g><path fill="none" stroke="none"/><path fill="none" stroke="#ff7f0e" paint-order="fill stroke markers" d=" M 55 185.75 L 57.833333333333336 185.75 L 60.666666666666664 185.75 L 63.5 185.75 L 66.33333333333333 185.75 L 69.16666666666667 185.75 L 72 185.75 L 74.83333333333334 185.75 L 77.66666666666667 185.75 L 80.5 185.75 L 83.33333333333334 185.75 L 86.16666666666667 185.75 L 89 185.75 L 91.83333333333334 185.75 L 94.66666666666667 185.75 L 97.5 185.75 L 100.33333333333334 185.75 L 103.16666666666667 185.75 L 106 185.75 L 108.83333333333334 185.75 L 111.66666666666667 185.75 L 114.5 186.32380952380953 L 117.33333333333334 180.81784632034632 L 120.16666666666667 175.56336704780728 L 123 170.54978202875023 L 125.83333333333334 165.76679292731274 L 128.66666666666669 161.2044148194086 L 131.5 156.8529903747345 L 134.33333333333334 152.7031979988549 L 137.16666666666669 148.7460553402915 L 140 144.97291923994356 L 142.83333333333334 141.37548295536573 L 145.66666666666669 137.94577130759745 L 148.5 134.67613425736909 L 151.33333333333334 131.55923930920653 L 154.16666666666669 128.5880630580319 L 157 125.75588212735254 L 159.83333333333334 123.05626369666058 L 162.66666666666669 120.48305577498544 L 165.5 118.03037734521052 L 168.33333333333334 115.69260847795 L 171.16666666666669 113.46438049307689 L 174 111.34056623032781 L 176.83333333333334 109.31627047695095 L 179.66666666666669 107.38682058946704 L 182.5 105.54775733777147 L 185.33333333333334 103.79482599262202 L 188.16666666666669 102.12396767171433 L 191 100.53131095479527 L 193.83333333333334 99.01316377440246 L 196.66666666666669 97.56600558568233 L 199.5 96.18647981620214 L 202.33333333333334 94.87138659462279 L 205.16666666666669 93.6176757554577 L 208 92.42244011583296 L 210.83333333333334 91.2829090191322 L 213.66666666666669 90.19644213960417 L 216.5 89.16052354139588 L 219.33333333333334 88.17275598501575 L 222.16666666666669 87.23085547390055 L 225 86.33264603353885 L 227.83333333333334 85.47605471546846 L 230.66666666666669 84.65910681840474 L 233.5 83.87992131875434 L 236.33333333333334 83.13670650281662 L 239.16666666666669 82.42775579306041 L 242 81.75144376098315 L 244.83333333333334 81.10622231920266 L 247.66666666666669 80.49061708559547 L 250.5 79.90322391247513 L 253.33333333333334 79.34270557399424 L 256.1666666666667 78.80778860515369 L 259 78.29726028600712 L 261.83333333333337 77.80996576485745 L 264.6666666666667 77.34480531445242 L 267.5 76.90073171539645 L 270.33333333333337 76.47674776120559 L 273.1666666666667 76.07190387963881 L 276 75.68529586514404 L 278.83333333333337 75.31606271745648 L 281.6666666666667 74.96338458158364 L 284.5 74.62648078460323 L 287.33333333333337 74.30460796488528 L 290.1666666666667 73.99705828953257 L 293 73.70315775600832 L 295.83333333333337 73.42226457409026 L 298.6666666666667 73.1537676244555 L 301.5 72.89708499035916 L 304.33333333333337 72.65166255902301 L 307.1666666666667 72.41697268949883 L 310 72.19251294391277 L 312.83333333333337 71.97780487913472 L 315.6666666666667 71.77239289604755 L 318.5 71.57584314371827 L 321.33333333333337 71.38774247589407 L 324.1666666666667 71.20769745736253 L 327 71.03533341782774 L 329.83333333333337 70.87029355106007 L 332.6666666666667 70.71223805718054 L 335.5 70.56084332603868 L 338.33333333333337 70.41580115973676 L 341.1666666666667 70.27681803244297 L 344 70.14361438572278 L 346.83333333333337 70.01592395769879 L 349.6666666666667 69.89349314442923 L 352.5 69.77608039196967 L 355.33333333333337 69.66345561765422 L 358.1666666666667 69.55539965920141 L 361 69.45170375031542 L 363.83333333333337 69.35216902151525 L 366.6666666666667 69.25660602498496 L 369.5 69.16483428229427 L 372.33333333333337 69.07668185389385 L 375.1666666666667 68.99198492934075 L 378 68.91058743725968 L 380.83333333333337 68.83234067409236 L 383.6666666666667 68.75710295073257 L 386.5 68.6847392561874 L 389.33333333333337 68.61512093744584 L 392.1666666666667 68.54812539477523" stroke-linejoin="bevel" stroke-miterlimit="10" stroke-width="2"/></g><g><path fill="none" stroke="none"/><path fill="none" stroke="#1f77b4" paint-order="fill stroke markers" d=" M 55 185.75 L 57.833333333333336 185.75 L 60.666666666666664 185.75 L 63.5 185.75 L 66.33333333333333 185.75 L 69.16666666666667 185.75 L 72 185.75 L 74.83333333333334 185.75 L 77.66666666666667 185.75 L 80.5 185.75 L 83.33333333333334 185.75 L 86.16666666666667 185.75 L 89 185.75 L 91.83333333333334 185.75 L 94.66666666666667 185.75 L 97.5 185.75 L 100.33333333333334 185.75 L 103.16666666666667 185.75 L 106 185.75 L 108.83333333333334 185.75 L 111.66666666666667 185.75 L 114.5 65.25 L 117.33333333333334 65.25 L 120.16666666666667 65.25 L 123 65.25 L 125.83333333333334 65.25 L 128.66666666666669 65.25 L 131.5 65.25 L 134.33333333333334 65.25 L 137.16666666666669 65.25 L 140 65.25 L 142.83333333333334 65.25 L 145.66666666666669 65.25 L 148.5 65.25 L 151.33333333333334 65.25 L 154.16666666666669 65.25 L 157 65.25 L 159.83333333333334 65.25 L 162.66666666666669 65.25 L 165.5 65.25 L 168.33333333333334 65.25 L 171.16666666666669 65.25 L 174 65.25 L 176.83333333333334 65.25 L 179.66666666666669 65.25 L 182.5 65.25 L 185.33333333333334 65.25 L 188.16666666666669 65.25 L 191 65.25 L 193.83333333333334 65.25 L 196.66666666666669 65.25 L 199.5 65.25 L 202.33333333333334 65.25 L 205.16666666666669 65.25 L 208 65.25 L 210.83333333333334 65.25 L 213.66666666666669 65.25 L 216.5 65.25 L 219.33333333333334 65.25 L 222.16666666666669 65.25 L 225 65.25 L 227.83333333333334 65.25 L 230.66666666666669 65.25 L 233.5 65.25 L 236.33333333333334 65.25 L 239.16666666666669 65.25 L 242 65.25 L 244.83333333333334 65.25 L 247.66666666666669 65.25 L 250.5 65.25 L 253.33333333333334 65.25 L 256.1666666666667 65.25 L 259 65.25 L 261.83333333333337 65.25 L 264.6666666666667 65.25 L 267.5 65.25 L 270.33333333333337 65.25 L 273.1666666666667 65.25 L 276 65.25 L 278.83333333333337 65.25 L 281.6666666666667 65.25 L 284.5 65.25 L 287.33333333333337 65.25 L 290.1666666666667 65.25 L 293 65.25 L 295.83333333333337 65.25 L 298.6666666666667 65.25 L 301.5 65.25 L 304.33333333333337 65.25 L 307.1666666666667 65.25 L 310 65.25 L 312.83333333333337 65.25 L 315.6666666666667 65.25 L 318.5 65.25 L 321.33333333333337 65.25 L 324.1666666666667 65.25 L 327 65.25 L 329.83333333333337 65.25 L 332.6666666666667 65.25 L 335.5 65.25 L 338.33333333333337 65.25 L 341.1666666666667 65.25 L 344 65.25 L 346.83333333333337 65.25 L 349.6666666666667 65.25 L 352.5 65.25 L 355.33333333333337 65.25 L 358.1666666666667 65.25 L 361 65.25 L 363.83333333333337 65.25 L 366.6666666666667 65.25 L 369.5 65.25 L 372.33333333333337 65.25 L 375.1666666666667 65.25 L 378 65.25 L 380.83333333333337 65.25 L 383.6666666666667 65.25 L 386.5 65.25 L 389.33333333333337 65.25 L 392.1666666666667 65.25" stroke-linejoin="bevel" stroke-miterlimit="10" stroke-width="2"/></g><g><path fill="none" stroke="none"/><path fill="none" stroke="#2ca02c" paint-order="fill stroke markers" d=" M 55 185.75 L 57.833333333333336 185.75 L 60.666666666666664 185.75 L 63.5 185.75 L 66.33333333333333 185.75 L 69.16666666666667 185.75 L 72 185.75 L 74.83333333333334 185.75 L 77.66666666666667 185.75 L 80.5 185.75 L 83.33333333333334 185.75 L 86.16666666666667 185.75 L 89 185.75 L 91.83333333333334 185.75 L 94.66666666666667 185.75 L 97.5 185.75 L 100.33333333333334 185.75 L 103.16666666666667 185.75 L 106 185.75 L 108.83333333333334 185.75 L 111.66666666666667 185.75 L 114.5 186.32380952380953 L 117.33333333333334 174.76415584415585 L 120.16666666666667 164.33665330321853 L 123 154.93007130623 L 125.83333333333334 146.444064175607 L 128.66666666666669 138.78811929650783 L 131.5 131.88060366315335 L 134.33333333333334 125.64790043969515 L 137.16666666666669 120.02362763710494 L 140 114.94793154006112 L 142.83333333333334 110.36684806347436 L 145.66666666666669 106.23172575712692 L 148.5 102.49870469656575 L 151.33333333333334 99.12824599161506 L 154.16666666666669 96.08470710673927 L 157 93.33595861828756 L 159.83333333333334 90.85303843213448 L 162.66666666666669 88.60983985207892 L 165.5 86.58283022584538 L 168.33333333333334 84.75079720326084 L 171.16666666666669 83.09461992195914 L 174 81.59706269166799 L 176.83333333333334 80.24258898064072 L 179.66666666666669 79.01719371894028 L 182.5 77.90825212482402 L 185.33333333333334 76.90438343408076 L 188.16666666666669 75.99532806939608 L 191 75.17183692912315 L 193.83333333333334 74.42557160355777 L 196.66666666666669 73.74901444320199 L 199.5 73.13538750868571 L 202.33333333333334 72.57857952704792 L 205.16666666666669 72.07308006490918 L 208 71.61392020656639 L 210.83333333333334 71.19661909500067 L 213.66666666666669 70.81713575692916 L 216.5 70.47182569000817 L 219.33333333333334 70.15740174169703 L 222.16666666666669 69.8708988556629 L 225 69.60964230342994 L 227.83333333333334 69.37121905669352 L 230.66666666666669 69.15345198973384 L 233.5 68.95437663203029 L 236.33333333333334 68.77222021882727 L 239.16666666666669 68.60538281232915 L 242 68.45242028867199 L 244.83333333333334 68.31202900607344 L 247.66666666666669 68.18303198781904 L 250.5 68.06436647019656 L 253.33333333333334 67.95507268031974 L 256.1666666666667 67.85428372214693 L 259 67.76121646104336 L 261.83333333333337 67.67516330808972 L 264.6666666666667 67.59548481511858 L 267.5 67.5216030002734 L 270.33333333333337 67.45299533182501 L 273.1666666666667 67.38918930513601 L 276 67.32975755410959 L 278.83333333333337 67.27431344426827 L 281.6666666666667 67.22250709984145 L 284.5 67.17402182195607 L 287.33333333333337 67.12857085927267 L 290.1666666666667 67.08589449623697 L 293 67.04575742756566 L 295.83333333333337 67.00794639069144 L 298.6666666666667 66.97226803069206 L 301.5 66.9385469747493 L 304.33333333333337 66.9066240954562 L 307.1666666666667 66.87635494433755 L 310 66.84760833879267 L 312.83333333333337 66.820265087331 L 315.6666666666667 66.79421683946745 L 318.5 66.76936504799382 L 321.33333333333337 66.74562003255613 L 324.1666666666667 66.72290013456369 L 327 66.70113095444066 L 329.83333333333337 66.6802446631203 L 332.6666666666667 66.66017938048176 L 335.5 66.64087861415076 L 338.33333333333337 66.62229075273568 L 341.1666666666667 66.6043686081552 L 344 66.58706900224163 L 346.83333333333337 66.5703523932796 L 349.6666666666667 66.55418253856702 L 352.5 66.53852618947222 L 355.33333333333337 66.52335281580802 L 358.1666666666667 66.50863435665714 L 361 66.49434499506549 L 363.83333333333337 66.48046095427453 L 366.6666666666667 66.46696031339255 L 369.5 66.45382284061183 L 372.33333333333337 66.44102984226495 L 375.1666666666667 66.42856402618006 L 378 66.416409377948 L 380.83333333333337 66.40455104884886 L 383.6666666666667 66.3929752543088 L 386.5 66.38166918186937 L 389.33333333333337 66.37062090775022 L 392.1666666666667 66.35981932117687" stroke-linejoin="bevel" stroke-miterlimit="10" stroke-width="2"/></g><g><path fill="none" stroke="none"/><path fill="none" stroke="#1f77b4" paint-order="fill stroke markers" d=" M 55 185.75 L 57.833333333333336 185.75 L 60.666666666666664 185.75 L 63.5 185.75 L 66.33333333333333 185.75 L 69.16666666666667 185.75 L 72 185.75 L 74.83333333333334 185.75 L 77.66666666666667 185.75 L 80.5 185.75 L 83.33333333333334 185.75 L 86.16666666666667 185.75 L 89 185.75 L 91.83333333333334 185.75 L 94.66666666666667 185.75 L 97.5 185.75 L 100.33333333333334 185.75 L 103.16666666666667 185.75 L 106 185.75 L 108.83333333333334 185.75 L 111.66666666666667 185.75 L 114.5 65.25 L 117.33333333333334 65.25 L 120.16666666666667 65.25 L 123 65.25 L 125.83333333333334 65.25 L 128.66666666666669 65.25 L 131.5 65.25 L 134.33333333333334 65.25 L 137.16666666666669 65.25 L 140 65.25 L 142.83333333333334 65.25 L 145.66666666666669 65.25 L 148.5 65.25 L 151.33333333333334 65.25 L 154.16666666666669 65.25 L 157 65.25 L 159.83333333333334 65.25 L 162.66666666666669 65.25 L 165.5 65.25 L 168.33333333333334 65.25 L 171.16666666666669 65.25 L 174 65.25 L 176.83333333333334 65.25 L 179.66666666666669 65.25 L 182.5 65.25 L 185.33333333333334 65.25 L 188.16666666666669 65.25 L 191 65.25 L 193.83333333333334 65.25 L 196.66666666666669 65.25 L 199.5 65.25 L 202.33333333333334 65.25 L 205.16666666666669 65.25 L 208 65.25 L 210.83333333333334 65.25 L 213.66666666666669 65.25 L 216.5 65.25 L 219.33333333333334 65.25 L 222.16666666666669 65.25 L 225 65.25 L 227.83333333333334 65.25 L 230.66666666666669 65.25 L 233.5 65.25 L 236.33333333333334 65.25 L 239.16666666666669 65.25 L 242 65.25 L 244.83333333333334 65.25 L 247.66666666666669 65.25 L 250.5 65.25 L 253.33333333333334 65.25 L 256.1666666666667 65.25 L 259 65.25 L 261.83333333333337 65.25 L 264.6666666666667 65.25 L 267.5 65.25 L 270.33333333333337 65.25 L 273.1666666666667 65.25 L 276 65.25 L 278.83333333333337 65.25 L 281.6666666666667 65.25 L 284.5 65.25 L 287.33333333333337 65.25 L 290.1666666666667 65.25 L 293 65.25 L 295.83333333333337 65.25 L 298.6666666666667 65.25 L 301.5 65.25 L 304.33333333333337 65.25 L 307.1666666666667 65.25 L 310 65.25 L 312.83333333333337 65.25 L 315.6666666666667 65.25 L 318.5 65.25 L 321.33333333333337 65.25 L 324.1666666666667 65.25 L 327 65.25 L 329.83333333333337 65.25 L 332.6666666666667 65.25 L 335.5 65.25 L 338.33333333333337 65.25 L 341.1666666666667 65.25 L 344 65.25 L 346.83333333333337 65.25 L 349.6666666666667 65.25 L 352.5 65.25 L 355.33333333333337 65.25 L 358.1666666666667 65.25 L 361 65.25 L 363.83333333333337 65.25 L 366.6666666666667 65.25 L 369.5 65.25 L 372.33333333333337 65.25 L 375.1666666666667 65.25 L 378 65.25 L 380.83333333333337 65.25 L 383.6666666666667 65.25 L 386.5 65.25 L 389.33333333333337 65.25 L 392.1666666666667 65.25" stroke-linejoin="bevel" stroke-miterlimit="10" stroke-width="2"/></g><g><path fill="none" stroke="none"/><path fill="none" stroke="#d62728" paint-order="fill stroke markers" d=" M 55 185.75 L 57.833333333333336 185.75 L 60.666666666666664 185.75 L 63.5 185.75 L 66.33333333333333 185.75 L 69.16666666666667 185.75 L 72 185.75 L 74.83333333333334 185.75 L 77.66666666666667 185.75 L 80.5 185.75 L 83.33333333333334 185.75 L 86.16666666666667 185.75 L 89 185.75 L 91.83333333333334 185.75 L 94.66666666666667 185.75 L 97.5 185.75 L 100.33333333333334 185.75 L 103.16666666666667 185.75 L 106 185.75 L 108.83333333333334 185.75 L 111.66666666666667 185.75 L 114.5 186.32380952380953 L 117.33333333333334 150.54939393939395 L 120.16666666666667 125.48348880105402 L 123 107.91552549407115 L 125.83333333333334 95.5978678458498 L 128.66666666666669 86.9569690305564 L 131.5 80.89117461768578 L 134.33333333333334 76.62917937523719 L 137.16666666666669 73.63094280404533 L 140 71.5183266294984 L 142.83333333333334 70.02653831806823 L 145.66666666666669 68.97013932264775 L 148.5 68.21924904100494 L 151.33333333333334 67.68288609340935 L 154.16666666666669 67.29730597967226 L 157 67.0178364079928 L 159.83333333333334 66.81316116127064 L 162.66666666666669 66.66131807604734 L 165.5 66.54689701220751 L 168.33333333333334 66.45907790854525 L 171.16666666666669 66.39025697500607 L 174 66.33508464440901 L 176.83333333333334 66.28979180922585 L 179.66666666666669 66.25171790282172 L 182.5 66.21898030975298 L 185.33333333333334 66.19024273856623 L 188.16666666666669 66.16455289571975 L 191 66.14122869367048 L 193.83333333333334 66.11977845291628 L 196.66666666666669 66.09984491704138 L 199.5 66.08116595173287 L 202.33333333333334 66.06354693544378 L 205.16666666666669 66.04684134537668 L 208 66.03093708991183 L 210.83333333333334 66.01574687202918 L 213.66666666666669 66.001201381849 L 216.5 65.98724447606624 L 219.33333333333334 65.97382975393602 L 222.16666666666669 65.9609181158908 L 225 65.9484760144569 L 227.83333333333334 65.93647419372638 L 230.66666666666669 65.92488677431814 L 233.5 65.91369058329255 L 236.33333333333334 65.90286465830478 L 239.16666666666669 65.89238987619797 L 242 65.88224867091434 L 244.83333333333334 65.87242481590867 L 247.66666666666669 65.86290325348901 L 250.5 65.85366995860173 L 253.33333333333334 65.84471182816407 L 256.1666666666667 65.836016589574 L 259 65.82757272381292 L 261.83333333333337 65.81936939981973 L 264.6666666666667 65.81139641771163 L 267.5 65.8036441590648 L 270.33333333333337 65.79610354292431 L 273.1666666666667 65.78876598654051 L 276 65.78162337006553 L 278.83333333333337 65.77466800461549 L 281.6666666666667 65.76789260323085 L 284.5 65.76129025436036 L 287.33333333333337 65.75485439756444 L 290.1666666666667 65.74857880118668 L 293 65.74245754178307 L 295.83333333333337 65.7364849851305 L 298.6666666666667 65.73065576866111 L 301.5 65.72496478518921 L 304.33333333333337 65.71940716781428 L 307.1666666666667 65.71397827589696 L 310 65.70867368201675 L 312.83333333333337 65.70348915982932 L 315.6666666666667 65.69842067275007 L 318.5 65.69346436339818 L 321.33333333333337 65.68861654374044 L 324.1666666666667 65.68387368588145 L 327 65.67923241345035 L 329.83333333333337 65.67468949353895 L 332.6666666666667 65.67024182915074 L 335.5 65.66588645212269 L 338.33333333333337 65.66162051648588 L 341.1666666666667 65.65744129223319 L 344 65.6533461594652 L 346.83333333333337 65.64933260288778 L 349.6666666666667 65.64539820663684 L 352.5 65.64154064940767 L 355.33333333333337 65.63775769986839 L 358.1666666666667 65.63404721233778 L 361 65.63040712271052 L 363.83333333333337 65.62683544461295 L 366.6666666666667 65.62333026577451 L 369.5 65.61988974460073 L 372.33333333333337 65.6165121069348 L 375.1666666666667 65.61319564299595 L 378 65.60993870448313 L 380.83333333333337 65.60673970183383 L 383.6666666666667 65.60359710162851 L 386.5 65.6005094241314 L 389.33333333333337 65.59747524095977 L 392.1666666666667 65.59449317287351" stroke-linejoin="bevel" stroke-miterlimit="10" stroke-width="2"/></g></g></g><g clip-path="url(#sIkWKMIzHcxp)"><g><g/><g><path fill="#ffffff" stroke="#e5e5e5" paint-order="fill stroke markers" d=" M 272.453125 127 L 385 127 L 385 236 L 272.453125 236 L 272.453125 127 Z" fill-opacity="0.95" stroke-linejoin="bevel" stroke-miterlimit="10" stroke-opacity="0.5"/><text fill="#444444" stroke="none" font-family="helvetica" font-size="12pt" font-style="normal" font-weight="normal" text-decoration="normal" x="307.453125" y="147" text-anchor="start" dominant-baseline="central">reference</text><g><path fill="none" stroke="#1f77b4" paint-order="fill stroke markers" d=" M 282.453125 147 L 302.453125 147" stroke-linejoin="bevel" stroke-miterlimit="10" stroke-width="2"/></g><g><path fill="none" stroke="#1f77b4" paint-order="fill stroke markers" d=" M 282.453125 147 L 302.453125 147" stroke-linejoin="bevel" stroke-miterlimit="10" stroke-width="2"/></g><g><path fill="none" stroke="#1f77b4" paint-order="fill stroke markers" d=" M 282.453125 147 L 302.453125 147" stroke-linejoin="bevel" stroke-miterlimit="10" stroke-width="2"/></g><text fill="#444444" stroke="none" font-family="helvetica" font-size="12pt" font-style="normal" font-weight="normal" text-decoration="normal" x="307.453125" y="170" text-anchor="start" dominant-baseline="central">kp = 0.05</text><g><path fill="none" stroke="#ff7f0e" paint-order="fill stroke markers" d=" M 282.453125 170 L 302.453125 170" stroke-linejoin="bevel" stroke-miterlimit="10" stroke-width="2"/></g><text fill="#444444" stroke="none" font-family="helvetica" font-size="12pt" font-style="normal" font-weight="normal" text-decoration="normal" x="307.453125" y="193" text-anchor="start" dominant-baseline="central">kp = 0.1</text><g><path fill="none" stroke="#2ca02c" paint-order="fill stroke markers" d=" M 282.453125 193 L 302.453125 193" stroke-linejoin="bevel" stroke-miterlimit="10" stroke-width="2"/></g><text fill="#444444" stroke="none" font-family="helvetica" font-size="12pt" font-style="normal" font-weight="normal" text-decoration="normal" x="307.453125" y="216" text-anchor="start" dominant-baseline="central">kp = 0.3</text><g><path fill="none" stroke="#d62728" paint-order="fill stroke markers" d=" M 282.453125 216 L 302.453125 216" stroke-linejoin="bevel" stroke-miterlimit="10" stroke-width="2"/></g></g></g></g><g><g fill="#444444"><path fill="none" stroke="black" paint-order="fill stroke markers" d=" M 55 246 L 395 246" stroke-linejoin="bevel" stroke-miterlimit="10"/><path fill="none" stroke="black" paint-order="fill stroke markers" d=" M 55 252 L 55 244" stroke-linejoin="bevel" stroke-miterlimit="10"/><path fill="none" stroke="black" paint-order="fill stroke markers" d=" M 112 252 L 112 244" stroke-linejoin="bevel" stroke-miterlimit="10"/><path fill="none" stroke="black" paint-order="fill stroke markers" d=" M 168 252 L 168 244" stroke-linejoin="bevel" stroke-miterlimit="10"/><path fill="none" stroke="black" paint-order="fill stroke markers" d=" M 225 252 L 225 244" stroke-linejoin="bevel" stroke-miterlimit="10"/><path fill="none" stroke="black" paint-order="fill stroke markers" d=" M 282 252 L 282 244" stroke-linejoin="bevel" stroke-miterlimit="10"/><path fill="none" stroke="black" paint-order="fill stroke markers" d=" M 338 252 L 338 244" stroke-linejoin="bevel" stroke-miterlimit="10"/><path fill="none" stroke="black" paint-order="fill stroke markers" d=" M 395 252 L 395 244" stroke-linejoin="bevel" stroke-miterlimit="10"/><path fill="none" stroke="black" paint-order="fill stroke markers" d=" M 55 250 L 55 246" stroke-linejoin="bevel" stroke-miterlimit="10"/><path fill="none" stroke="black" paint-order="fill stroke markers" d=" M 66 250 L 66 246" stroke-linejoin="bevel" stroke-miterlimit="10"/><path fill="none" stroke="black" paint-order="fill stroke markers" d=" M 78 250 L 78 246" stroke-linejoin="bevel" stroke-miterlimit="10"/><path fill="none" stroke="black" paint-order="fill stroke markers" d=" M 89 250 L 89 246" stroke-linejoin="bevel" stroke-miterlimit="10"/><path fill="none" stroke="black" paint-order="fill stroke markers" d=" M 100 250 L 100 246" stroke-linejoin="bevel" stroke-miterlimit="10"/><path fill="none" stroke="black" paint-order="fill stroke markers" d=" M 112 250 L 112 246" stroke-linejoin="bevel" stroke-miterlimit="10"/><path fill="none" stroke="black" paint-order="fill stroke markers" d=" M 123 250 L 123 246" stroke-linejoin="bevel" stroke-miterlimit="10"/><path fill="none" stroke="black" paint-order="fill stroke markers" d=" M 134 250 L 134 246" stroke-linejoin="bevel" stroke-miterlimit="10"/><path fill="none" stroke="black" paint-order="fill stroke markers" d=" M 146 250 L 146 246" stroke-linejoin="bevel" stroke-miterlimit="10"/><path fill="none" stroke="black" paint-order="fill stroke markers" d=" M 157 250 L 157 246" stroke-linejoin="bevel" stroke-miterlimit="10"/><path fill="none" stroke="black" paint-order="fill stroke markers" d=" M 168 250 L 168 246" stroke-linejoin="bevel" stroke-miterlimit="10"/><path fill="none" stroke="black" paint-order="fill stroke markers" d=" M 180 250 L 180 246" stroke-linejoin="bevel" stroke-miterlimit="10"/><path fill="none" stroke="black" paint-order="fill stroke markers" d=" M 191 250 L 191 246" stroke-linejoin="bevel" stroke-miterlimit="10"/><path fill="none" stroke="black" paint-order="fill stroke markers" d=" M 202 250 L 202 246" stroke-linejoin="bevel" stroke-miterlimit="10"/><path fill="none" stroke="black" paint-order="fill stroke markers" d=" M 214 250 L 214 246" stroke-linejoin="bevel" stroke-miterlimit="10"/><path fill="none" stroke="black" paint-order="fill stroke markers" d=" M 225 250 L 225 246" stroke-linejoin="bevel" stroke-miterlimit="10"/><path fill="none" stroke="black" paint-order="fill stroke markers" d=" M 236 250 L 236 246" stroke-linejoin="bevel" stroke-miterlimit="10"/><path fill="none" stroke="black" paint-order="fill stroke markers" d=" M 248 250 L 248 246" stroke-linejoin="bevel" stroke-miterlimit="10"/><path fill="none" stroke="black" paint-order="fill stroke markers" d=" M 259 250 L 259 246" stroke-linejoin="bevel" stroke-miterlimit="10"/><path fill="none" stroke="black" paint-order="fill stroke markers" d=" M 270 250 L 270 246" stroke-linejoin="bevel" stroke-miterlimit="10"/><path fill="none" stroke="black" paint-order="fill stroke markers" d=" M 282 250 L 282 246" stroke-linejoin="bevel" stroke-miterlimit="10"/><path fill="none" stroke="black" paint-order="fill stroke markers" d=" M 293 250 L 293 246" stroke-linejoin="bevel" stroke-miterlimit="10"/><path fill="none" stroke="black" paint-order="fill stroke markers" d=" M 304 250 L 304 246" stroke-linejoin="bevel" stroke-miterlimit="10"/><path fill="none" stroke="black" paint-order="fill stroke markers" d=" M 316 250 L 316 246" stroke-linejoin="bevel" stroke-miterlimit="10"/><path fill="none" stroke="black" paint-order="fill stroke markers" d=" M 327 250 L 327 246" stroke-linejoin="bevel" stroke-miterlimit="10"/><path fill="none" stroke="black" paint-order="fill stroke markers" d=" M 338 250 L 338 246" stroke-linejoin="bevel" stroke-miterlimit="10"/><path fill="none" stroke="black" paint-order="fill stroke markers" d=" M 350 250 L 350 246" stroke-linejoin="bevel" stroke-miterlimit="10"/><path fill="none" stroke="black" paint-order="fill stroke markers" d=" M 361 250 L 361 246" stroke-linejoin="bevel" stroke-miterlimit="10"/><path fill="none" stroke="black" paint-order="fill stroke markers" d=" M 372 250 L 372 246" stroke-linejoin="bevel" stroke-miterlimit="10"/><path fill="none" stroke="black" paint-order="fill stroke markers" d=" M 384 250 L 384 246" stroke-linejoin="bevel" stroke-miterlimit="10"/><path fill="" stroke="black" paint-order="fill stroke markers" d=" M 395 250 L 395 246" stroke-linejoin="bevel" stroke-miterlimit="10"/><g transform="translate(55,257) rotate(0,0,0)"><text fill="" stroke="none" font-family="helvetica" font-size="12pt" font-style="normal" font-weight="normal" text-decoration="normal" x="0" y="0" text-anchor="middle" dominant-baseline="hanging">0</text><g transform="rotate(0,0,0) translate(-55,-257) translate(112,257) rotate(0,0,0)"><text fill="" stroke="none" font-family="helvetica" font-size="12pt" font-style="normal" font-weight="normal" text-decoration="normal" x="0" y="0" text-anchor="middle" dominant-baseline="hanging">20</text><g transform="rotate(0,0,0) translate(-112,-257) translate(168,257) rotate(0,0,0)"><text fill="" stroke="none" font-family="helvetica" font-size="12pt" font-style="normal" font-weight="normal" text-decoration="normal" x="0" y="0" text-anchor="middle" dominant-baseline="hanging">40</text><g transform="rotate(0,0,0) translate(-168,-257) translate(225,257) rotate(0,0,0)"><text fill="" stroke="none" font-family="helvetica" font-size="12pt" font-style="normal" font-weight="normal" text-decoration="normal" x="0" y="0" text-anchor="middle" dominant-baseline="hanging">60</text><g transform="rotate(0,0,0) translate(-225,-257) translate(282,257) rotate(0,0,0)"><text fill="" stroke="none" font-family="helvetica" font-size="12pt" font-style="normal" font-weight="normal" text-decoration="normal" x="0" y="0" text-anchor="middle" dominant-baseline="hanging">80</text><g transform="rotate(0,0,0) translate(-282,-257) translate(338,257) rotate(0,0,0)"><text fill="" stroke="none" font-family="helvetica" font-size="12pt" font-style="normal" font-weight="normal" text-decoration="normal" x="0" y="0" text-anchor="middle" dominant-baseline="hanging">100</text><g transform="rotate(0,0,0) translate(-338,-257) translate(395,257) rotate(0,0,0)"><text fill="" stroke="none" font-family="helvetica" font-size="12pt" font-style="normal" font-weight="normal" text-decoration="normal" x="0" y="0" text-anchor="middle" dominant-baseline="hanging">120</text><g transform="rotate(0,0,0) translate(-395,-257) translate(225,281) rotate(0,0,0)"><text fill="" stroke="none" font-family="helvetica" font-size="12pt" font-style="italic" font-weight="normal" text-decoration="normal" x="0" y="0" text-anchor="middle" dominant-baseline="hanging">timesteps</text><g transform="rotate(0,0,0) translate(-225,-281)"/></g></g></g></g></g></g></g></g></g><g fill="#444444"><path fill="none" stroke="black" paint-order="fill stroke markers" d=" M 55 246 L 55 5" stroke-linejoin="bevel" stroke-miterlimit="10"/><path fill="none" stroke="black" paint-order="fill stroke markers" d=" M 49 246 L 57 246" stroke-linejoin="bevel" stroke-miterlimit="10"/><path fill="none" stroke="black" paint-order="fill stroke markers" d=" M 49 186 L 57 186" stroke-linejoin="bevel" stroke-miterlimit="10"/><path fill="none" stroke="black" paint-order="fill stroke markers" d=" M 49 126 L 57 126" stroke-linejoin="bevel" stroke-miterlimit="10"/><path fill="none" stroke="black" paint-order="fill stroke markers" d=" M 49 65 L 57 65" stroke-linejoin="bevel" stroke-miterlimit="10"/><path fill="none" stroke="black" paint-order="fill stroke markers" d=" M 49 5 L 57 5" stroke-linejoin="bevel" stroke-miterlimit="10"/><path fill="none" stroke="black" paint-order="fill stroke markers" d=" M 51 246 L 55 246" stroke-linejoin="bevel" stroke-miterlimit="10"/><path fill="none" stroke="black" paint-order="fill stroke markers" d=" M 51 234 L 55 234" stroke-linejoin="bevel" stroke-miterlimit="10"/><path fill="none" stroke="black" paint-order="fill stroke markers" d=" M 51 222 L 55 222" stroke-linejoin="bevel" stroke-miterlimit="10"/><path fill="none" stroke="black" paint-order="fill stroke markers" d=" M 51 210 L 55 210" stroke-linejoin="bevel" stroke-miterlimit="10"/><path fill="none" stroke="black" paint-order="fill stroke markers" d=" M 51 198 L 55 198" stroke-linejoin="bevel" stroke-miterlimit="10"/><path fill="none" stroke="black" paint-order="fill stroke markers" d=" M 51 186 L 55 186" stroke-linejoin="bevel" stroke-miterlimit="10"/><path fill="none" stroke="black" paint-order="fill stroke markers" d=" M 51 174 L 55 174" stroke-linejoin="bevel" stroke-miterlimit="10"/><path fill="none" stroke="black" paint-order="fill stroke markers" d=" M 51 162 L 55 162" stroke-linejoin="bevel" stroke-miterlimit="10"/><path fill="none" stroke="black" paint-order="fill stroke markers" d=" M 51 150 L 55 150" stroke-linejoin="bevel" stroke-miterlimit="10"/><path fill="none" stroke="black" paint-order="fill stroke markers" d=" M 51 138 L 55 138" stroke-linejoin="bevel" stroke-miterlimit="10"/><path fill="none" stroke="black" paint-order="fill stroke markers" d=" M 51 126 L 55 126" stroke-linejoin="bevel" stroke-miterlimit="10"/><path fill="none" stroke="black" paint-order="fill stroke markers" d=" M 51 113 L 55 113" stroke-linejoin="bevel" stroke-miterlimit="10"/><path fill="none" stroke="black" paint-order="fill stroke markers" d=" M 51 101 L 55 101" stroke-linejoin="bevel" stroke-miterlimit="10"/><path fill="none" stroke="black" paint-order="fill stroke markers" d=" M 51 89 L 55 89" stroke-linejoin="bevel" stroke-miterlimit="10"/><path fill="none" stroke="black" paint-order="fill stroke markers" d=" M 51 77 L 55 77" stroke-linejoin="bevel" stroke-miterlimit="10"/><path fill="none" stroke="black" paint-order="fill stroke markers" d=" M 51 65 L 55 65" stroke-linejoin="bevel" stroke-miterlimit="10"/><path fill="none" stroke="black" paint-order="fill stroke markers" d=" M 51 53 L 55 53" stroke-linejoin="bevel" stroke-miterlimit="10"/><path fill="none" stroke="black" paint-order="fill stroke markers" d=" M 51 41 L 55 41" stroke-linejoin="bevel" stroke-miterlimit="10"/><path fill="none" stroke="black" paint-order="fill stroke markers" d=" M 51 29 L 55 29" stroke-linejoin="bevel" stroke-miterlimit="10"/><path fill="none" stroke="black" paint-order="fill stroke markers" d=" M 51 17 L 55 17" stroke-linejoin="bevel" stroke-miterlimit="10"/><path fill="" stroke="black" paint-order="fill stroke markers" d=" M 51 5 L 55 5" stroke-linejoin="bevel" stroke-miterlimit="10"/><g transform="translate(44,246) rotate(0,0,0)"><text fill="" stroke="none" font-family="helvetica" font-size="12pt" font-style="normal" font-weight="normal" text-decoration="normal" x="0" y="0" text-anchor="end" dominant-baseline="central">-5</text><g transform="rotate(0,0,0) translate(-44,-246) translate(44,186) rotate(0,0,0)"><text fill="" stroke="none" font-family="helvetica" font-size="12pt" font-style="normal" font-weight="normal" text-decoration="normal" x="0" y="0" text-anchor="end" dominant-baseline="central">0</text><g transform="rotate(0,0,0) translate(-44,-186) translate(44,126) rotate(0,0,0)"><text fill="" stroke="none" font-family="helvetica" font-size="12pt" font-style="normal" font-weight="normal" text-decoration="normal" x="0" y="0" text-anchor="end" dominant-baseline="central">5</text><g transform="rotate(0,0,0) translate(-44,-126) translate(44,65) rotate(0,0,0)"><text fill="" stroke="none" font-family="helvetica" font-size="12pt" font-style="normal" font-weight="normal" text-decoration="normal" x="0" y="0" text-anchor="end" dominant-baseline="central">10</text><g transform="rotate(0,0,0) translate(-44,-65) translate(44,5) rotate(0,0,0)"><text fill="" stroke="none" font-family="helvetica" font-size="12pt" font-style="normal" font-weight="normal" text-decoration="normal" x="0" y="0" text-anchor="end" dominant-baseline="central">15</text><g transform="rotate(0,0,0) translate(-44,-5) translate(19,126) rotate(-90,0,0)"><text fill="" stroke="none" font-family="helvetica" font-size="12pt" font-style="italic" font-weight="normal" text-decoration="normal" x="0" y="0" text-anchor="middle" dominant-baseline="alphabetic">output</text><g transform="rotate(90,0,0) translate(-19,-126)"/></g></g></g></g></g></g></g></g></g></g></svg>